# xmcd CD database file
#
# Track frame offsets:
#	150
#	22251
#	40242
#	57092
#	75240
#	96950
#	117985
#	138145
#	157508
#	170362
#	188926
#	212026
#	229617
#
# Disc length: 3207 seconds
#
# Revision: 0
# Processed by: cddbd v1.5.1PL0 Copyright (c) Steve Scherf et al.
# Submitted via: CDex 1.51
#
DISCID=9c0c850d
DTITLE=Elvis Costello and The Imposters - The Delivery Man
DYEAR=2004
DGENRE=Country
TTITLE0=Button My Lip
TTITLE1=Country Darkness
TTITLE2=There's A Story In Your Voice
TTITLE3=Either Side Of The Same Town
TTITLE4=Bedlam
TTITLE5=The Delivery Man
TTITLE6=Monkey To Man
TTITLE7=Nothing Clings Like Ivy
TTITLE8=The Name Of This Thing Is Not Love
TTITLE9=Heart Shaped Bruise
TTITLE10=Needle Time
TTITLE11=The Judgement
TTITLE12=Scarlet Tide
EXTD=YEAR: 2004
EXTT0=
EXTT1=
EXTT2=
EXTT3=
EXTT4=
EXTT5=
EXTT6=
EXTT7=
EXTT8=
EXTT9=
EXTT10=
EXTT11=
EXTT12=
PLAYORDER=
